<svg version="1.1" xmlns="http://www.w3.org/2000/svg" xmlns:xlink="http://www.w3.org/1999/xlink" width="356" height="188"><defs/><g><text fill="#eeeeee" stroke="none" font-family="Arial" font-size="24px" font-style="normal" font-weight="normal" text-decoration="none" x="0" y="0">UNREGISTERED</text><text fill="#eeeeee" stroke="none" font-family="Arial" font-size="24px" font-style="normal" font-weight="normal" text-decoration="none" x="0" y="30">UNREGISTERED</text><text fill="#eeeeee" stroke="none" font-family="Arial" font-size="24px" font-style="normal" font-weight="normal" text-decoration="none" x="0" y="60">UNREGISTERED</text><text fill="#eeeeee" stroke="none" font-family="Arial" font-size="24px" font-style="normal" font-weight="normal" text-decoration="none" x="0" y="90">UNREGISTERED</text><text fill="#eeeeee" stroke="none" font-family="Arial" font-size="24px" font-style="normal" font-weight="normal" text-decoration="none" x="0" y="120">UNREGISTERED</text><text fill="#eeeeee" stroke="none" font-family="Arial" font-size="24px" font-style="normal" font-weight="normal" text-decoration="none" x="0" y="150">UNREGISTERED</text><text fill="#eeeeee" stroke="none" font-family="Arial" font-size="24px" font-style="normal" font-weight="normal" text-decoration="none" x="0" y="180">UNREGISTERED</text><text fill="#eeeeee" stroke="none" font-family="Arial" font-size="24px" font-style="normal" font-weight="normal" text-decoration="none" x="200" y="0">UNREGISTERED</text><text fill="#eeeeee" stroke="none" font-family="Arial" font-size="24px" font-style="normal" font-weight="normal" text-decoration="none" x="200" y="30">UNREGISTERED</text><text fill="#eeeeee" stroke="none" font-family="Arial" font-size="24px" font-style="normal" font-weight="normal" text-decoration="none" x="200" y="60">UNREGISTERED</text><text fill="#eeeeee" stroke="none" font-family="Arial" font-size="24px" font-style="normal" font-weight="normal" text-decoration="none" x="200" y="90">UNREGISTERED</text><text fill="#eeeeee" stroke="none" font-family="Arial" font-size="24px" font-style="normal" font-weight="normal" text-decoration="none" x="200" y="120">UNREGISTERED</text><text fill="#eeeeee" stroke="none" font-family="Arial" font-size="24px" font-style="normal" font-weight="normal" text-decoration="none" x="200" y="150">UNREGISTERED</text><text fill="#eeeeee" stroke="none" font-family="Arial" font-size="24px" font-style="normal" font-weight="normal" text-decoration="none" x="200" y="180">UNREGISTERED</text><g transform="translate(-254,-294) scale(1,1)"><rect fill="#C0C0C0" stroke="none" x="431" y="311" width="176" height="168" opacity="0.2"/></g><g transform="translate(-254,-294) scale(1,1)"><rect fill="#ffffff" stroke="none" x="424" y="304" width="176" height="168"/></g><g transform="translate(-254,-294) scale(1,1)"><path fill="none" stroke="#000000" d="M 424 304 L 600 304 L 600 472 L 424 472 L 424 304 Z Z" stroke-miterlimit="10"/></g><g transform="translate(-254,-294) scale(1,1)"><g><path fill="none" stroke="none"/><text fill="#000000" stroke="none" font-family="Arial" font-size="13px" font-style="normal" font-weight="bold" text-decoration="none" x="495.740478515625" y="323.5">Menu</text></g></g><g transform="translate(-254,-294) scale(1,1)"><path fill="#ffffff" stroke="none" d="M 280.40935031960225 369.68 C 280.40935031960225 364.886167936 284.29519264454774 361 289.088623046875 361 C 293.88205344920226 361 297.76789577414775 364.886167936 297.76789577414775 369.68 C 297.76789577414775 374.473832064 293.88205344920226 378.36 289.088623046875 378.36 C 284.29519264454774 378.36 280.40935031960225 374.473832064 280.40935031960225 369.68 Z"/></g><g transform="translate(-254,-294) scale(1,1)"><path fill="none" stroke="#000000" d="M 280.40935031960225 369.68 C 280.40935031960225 364.886167936 284.29519264454774 361 289.088623046875 361 C 293.88205344920226 361 297.76789577414775 364.886167936 297.76789577414775 369.68 C 297.76789577414775 374.473832064 293.88205344920226 378.36 289.088623046875 378.36 C 284.29519264454774 378.36 280.40935031960225 374.473832064 280.40935031960225 369.68 Z" stroke-miterlimit="10"/></g><g transform="translate(-254,-294) scale(1,1)"><path fill="none" stroke="#000000" d="M 289.088623046875 378.36 L 289.088623046875 395.64" stroke-miterlimit="10"/></g><g transform="translate(-254,-294) scale(1,1)"><path fill="none" stroke="#000000" d="M 279.89880486505683 384.84 L 298.27844122869317 384.84" stroke-miterlimit="10"/></g><g transform="translate(-254,-294) scale(1,1)"><path fill="none" stroke="#000000" d="M 289.088623046875 395.64 L 276.32498668323865 413" stroke-miterlimit="10"/></g><g transform="translate(-254,-294) scale(1,1)"><path fill="none" stroke="#000000" d="M 289.088623046875 395.64 L 301.85225941051135 413" stroke-miterlimit="10"/></g><g transform="translate(-254,-294) scale(1,1)"><g><path fill="none" stroke="none"/><text fill="#000000" stroke="none" font-family="Arial" font-size="13px" font-style="normal" font-weight="bold" text-decoration="none" x="275.364990234375" y="433.5">User</text></g></g><g transform="translate(-254,-294) scale(1,1)"><path fill="#C0C0C0" stroke="none" d="M 463 408 C 463 398.6111584 489.4151968 391 522 391 C 554.5848032 391 581 398.6111584 581 408 C 581 417.3888416 554.5848032 425 522 425 C 489.4151968 425 463 417.3888416 463 408 Z" opacity="0.2"/></g><g transform="translate(-254,-294) scale(1,1)"><path fill="#ffffff" stroke="none" d="M 456 401 C 456 391.6111584 482.4151968 384 515 384 C 547.5848032 384 574 391.6111584 574 401 C 574 410.3888416 547.5848032 418 515 418 C 482.4151968 418 456 410.3888416 456 401 Z"/></g><g transform="translate(-254,-294) scale(1,1)"><path fill="none" stroke="#000000" d="M 456 401 C 456 391.6111584 482.4151968 384 515 384 C 547.5848032 384 574 391.6111584 574 401 C 574 410.3888416 547.5848032 418 515 418 C 482.4151968 418 456 410.3888416 456 401 Z" stroke-miterlimit="10"/></g><g transform="translate(-254,-294) scale(1,1)"><g><path fill="none" stroke="none"/><text fill="#000000" stroke="none" font-family="Arial" font-size="13px" font-style="normal" font-weight="bold" text-decoration="none" x="480.32275390625" y="408">New Library</text></g></g><g transform="translate(-254,-294) scale(1,1)"><path fill="none" stroke="#000000" d="M 315 399 L 455 400" stroke-miterlimit="10"/></g></g></svg>